<svg id="Layer_1" data-name="Layer 1" xmlns="http://www.w3.org/2000/svg" viewBox="0 0 20 20"><defs><style>.cls-1{fill:none;stroke-linecap:round;stroke-width:0.9px;}.cls-1,.cls-2{stroke:#fff;stroke-miterlimit:10;}.cls-2{fill:#fff;stroke-width:0.37px;}</style></defs><path class="cls-1" d="M6.74,16.92H5.51a2.13,2.13,0,0,1-2.13-2.13V4.6A2.13,2.13,0,0,1,5.51,2.47h7.07A2.13,2.13,0,0,1,14.71,4.6v3"/><path class="cls-2" d="M15,17c.14-.13.29-.25.42-.38A4,4,0,0,0,13.93,10a3.77,3.77,0,0,0-1-.19.27.27,0,0,0-.31.23v0a.29.29,0,0,0,.27.29h0a3.2,3.2,0,0,1,2.21,1,3.49,3.49,0,1,1-5,0l.18-.16c0,.1-.07,1.53-.07,1.62a.27.27,0,0,0,.24.3h0c.15,0,.26,0,.3-.2,0-.35.1-1.77.1-2.23a.37.37,0,0,0-.34-.34H8.34a.28.28,0,0,0-.3.27.27.27,0,0,0,.27.27H9.83L9.76,11a3.92,3.92,0,0,0-.93,4.25A4,4,0,0,0,14,17.6l.23-.09.42-.21Z"/><path class="cls-1" d="M14.42,4.93H13.23a1.57,1.57,0,0,1-1.55-1.55V2.47"/></svg>