<svg id="svg2" xmlns="http://www.w3.org/2000/svg" viewBox="0 0 300 300"><defs><style>.cls-1{fill:#828385;}.cls-2{fill:#616264;}.cls-3{fill:#4b4b4d;}.cls-4{fill:#8ea9d3;}.cls-5{fill:#5c8ac3;}.cls-6{fill:#6690c6;}.cls-7{fill:#5185c0;}</style></defs><g id="g10"><g id="g12"><path id="path14" class="cls-1" d="M150,149.66l66.39-39-11.92-5.5H95.53l-11.92,5.5Z"/></g><g id="g16"><path id="path18" class="cls-2" d="M150,131.07v4.76L79.54,96.17l-.4-4.35Z"/></g><g id="g20"><path id="path22" class="cls-2" d="M83.61,110.67l1.18,13.48,53.69,93.72L150,226V149.66Z"/></g><g id="g24"><path id="path26" class="cls-1" d="M69,114.39l-4,1.81,68.69,42.42,4.07-2.3Z"/></g><g id="g28"><path id="path30" class="cls-3" d="M133.65,158.62l1.51,80.16,3.57-2.49-1-80Z"/></g><g id="g32"><path id="path34" class="cls-4" d="M65,116.2l8.69,76.49,61.51,46.09-1.51-80.16Z"/></g><g id="g36"><path id="path38" class="cls-5" d="M91.25,182l-4.56-52.39,47,29,1,54.25Z"/></g><g id="g40"><path id="path42" class="cls-4" d="M150,131.12l70.86-39.3L150,61.22,79.14,91.82Z"/></g><g id="g44"><path id="path46" class="cls-6" d="M150,81.49,198.82,104,150,131.07,101.18,104Z"/></g><g id="g48"><path id="path50" class="cls-3" d="M150,131.07v4.76l70.46-39.66.4-4.35Z"/></g><g id="g52"><path id="path54" class="cls-3" d="M216.39,110.67l-1.19,13.48-53.68,93.72L150,226V149.66Z"/></g><g id="g56"><path id="path58" class="cls-1" d="M231,114.39l4,1.81-68.7,42.42-4.07-2.3Z"/></g><g id="g60"><path id="path62" class="cls-2" d="M166.34,158.62l-1.5,80.16-3.57-2.49,1-80Z"/></g><g id="g64"><path id="path66" class="cls-4" d="M235,116.2l-8.69,76.49-61.51,46.09,1.5-80.16Z"/></g><path id="path70" class="cls-7" d="M208.75,182l4.56-52.39-47,29-1,54.25Z"/></g></svg>