<svg id="Layer_1" data-name="Layer 1" xmlns="http://www.w3.org/2000/svg" viewBox="0 0 264 264"><defs><style>.cls-1{fill:#fff;opacity:0.25;}.cls-1,.cls-2{stroke:#000;stroke-miterlimit:10;stroke-width:6.83px;}.cls-1,.cls-3{isolation:isolate;}.cls-2{fill:none;}.cls-3,.cls-4{opacity:0.6;}.cls-5{opacity:0.6;}</style></defs><rect class="cls-1" x="3.3" y="3.3" width="257.4" height="257.4" rx="9"/><rect class="cls-2" x="3.3" y="3.72" width="257.4" height="257.4" rx="9"/><polygon class="cls-3" points="200 48 192 48 192 56 192 64 192 72 200 72 208 72 216 72 216 64 216 56 216 48 208 48 200 48"/><path d="M145,123.17A13.14,13.14,0,0,1,139.35,134a9.86,9.86,0,0,0-2.61,2.46,8.15,8.15,0,0,0-1,3.44c-.21,2.24-1.7,3.85-3.81,3.81a3.69,3.69,0,0,1-3.62-3.76,1.93,1.93,0,0,1,0-.24,13.43,13.43,0,0,1,6.33-11.54c2.46-1.64,3.47-4.11,2.66-6.65a5.51,5.51,0,0,0-6.1-3.8,5.59,5.59,0,0,0-4.76,5.3,3.8,3.8,0,0,1-2.49,3.72,3.72,3.72,0,0,1-5-3.64,13.09,13.09,0,0,1,10.58-12.7C137.6,109,144.63,114.7,145,123.17Z"/><path d="M135.69,150.08a3.69,3.69,0,1,1-3.72-3.7,3.69,3.69,0,0,1,3.72,3.7Z"/><polygon class="cls-3" points="40 104 48 104 56 104 56 96 48 96 40 96 32 96 32 104 32 112 40 112 40 104"/><rect class="cls-3" x="32" y="152" width="8" height="8"/><polygon class="cls-3" points="64 144 56 144 48 144 48 136 48 128 56 128 56 120 48 120 40 120 32 120 32 128 40 128 40 136 32 136 32 144 40 144 40 152 48 152 48 160 40 160 40 168 48 168 56 168 56 160 64 160 64 152 64 144"/><polygon class="cls-3" points="56 192 48 192 48 200 48 208 48 216 56 216 64 216 72 216 72 208 72 200 72 192 64 192 56 192"/><rect class="cls-3" x="64" y="128" width="8" height="8"/><rect class="cls-3" x="72" y="120" width="8" height="8"/><rect class="cls-3" x="72" y="136" width="8" height="8"/><rect class="cls-3" x="80" y="112" width="8" height="8"/><rect class="cls-3" x="80" y="128" width="8" height="8"/><polygon class="cls-3" points="80 144 80 152 88 152 96 152 96 144 96 136 88 136 88 144 80 144"/><rect class="cls-3" x="88" y="120" width="8" height="8"/><polygon class="cls-3" points="104 208 96 208 96 216 96 224 96 232 104 232 104 224 104 216 112 216 112 224 112 232 120 232 120 224 128 224 128 216 120 216 120 208 112 208 104 208"/><rect class="cls-3" x="120" y="88" width="8" height="8"/><rect class="cls-3" x="128" y="224" width="8" height="8"/><rect class="cls-3" x="136" y="208" width="8" height="8"/><rect class="cls-3" x="176" y="176" width="8" height="8"/><rect class="cls-3" x="176" y="216" width="8" height="8"/><rect class="cls-3" x="184" y="224" width="8" height="8"/><polygon class="cls-3" points="208 128 200 128 200 136 200 144 208 144 208 136 208 128"/><rect class="cls-3" x="208" y="96" width="8" height="8"/><polygon class="cls-3" points="216 168 216 176 216 184 216 192 216 200 224 200 232 200 232 192 224 192 224 184 232 184 232 176 232 168 224 168 216 168"/><polygon class="cls-3" points="224 112 216 112 208 112 208 120 216 120 216 128 216 136 224 136 224 144 216 144 208 144 208 152 216 152 216 160 224 160 224 152 232 152 232 144 232 136 232 128 224 128 224 120 232 120 232 112 232 104 224 104 224 112"/><rect class="cls-3" x="224" y="208" width="8" height="8"/><path class="cls-3" d="M224,224v-8h-8v16h10a6,6,0,0,0,6-6v-2Z"/><g class="cls-4"><path d="M38,232H88V176H32v50A6,6,0,0,0,38,232Zm2-21.33V184H80v40H40Z"/></g><polygon class="cls-3" points="64 72 72 72 72 64 72 56 72 48 64 48 56 48 48 48 48 56 48 64 48 72 56 72 64 72"/><rect class="cls-3" x="96" y="48" width="8" height="8"/><rect class="cls-3" x="104" y="40" width="8" height="8"/><polygon class="cls-3" points="104 72 112 72 112 64 112 56 104 56 104 64 104 72"/><rect class="cls-3" x="112" y="32" width="8" height="8"/><rect class="cls-3" x="120" y="48" width="8" height="8"/><polygon class="cls-3" points="160 56 160 48 160 40 160 32 152 32 152 40 152 48 144 48 144 56 144 64 152 64 152 56 160 56"/><polygon class="cls-3" points="112 88 120 88 120 80 128 80 128 88 136 88 136 80 144 80 144 88 136 88 136 96 144 96 152 96 152 88 152 80 160 80 160 88 168 88 168 80 168 72 168 64 160 64 152 64 152 72 144 72 136 72 136 64 136 56 128 56 128 64 128 72 120 72 112 72 112 80 112 88"/><g class="cls-4"><path d="M226,32H176V88h56V38A6,6,0,0,0,226,32Zm-2,21.33V80H184V40h40Z"/></g><g class="cls-4"><path d="M32,38V88H88V32H38A6,6,0,0,0,32,38Zm21.33,2H80V80H40V40Z"/></g><path class="cls-5" d="M72,112v-8H96v-2a6,6,0,0,1,6-6h2V80H96V96H64v8H56v8H72Z"/><path class="cls-5" d="M208,200V160h-8v-8h-8v8h-8v-8h8v-8h-8v-8h8v-8h-8v-8h8v-8h-8V96H162a6,6,0,0,1,6,6v2h8v8h-8v8h8v8h-8v8h8v8h-8v8h8v8h-8v2a6,6,0,0,1-6,6H152v8h-8v8h-8v-8h8v-8H102a6,6,0,0,1-6-6v-2H64v8H96v32h8v-8h8v8h8v8h8V192h-8v-8h-8v-8h8v8h8v8h16v16h8v8h8v8h-8v8h16V208h-8v-8h-8V184h8v16h8v8h8v-8h8v8h8v16h16v-8h-8v-8h16v-8Zm-16-24v16H168V168h24Z"/></svg>